solid OpenSCAD_Model
  facet normal -0.866025 -0.5 0
    outer loop
      vertex -25.8558 -15.2165 10
      vertex -25.8558 -15.2165 0
      vertex -25.1058 -16.5155 10
    endloop
  endfacet
  facet normal -0.866025 -0.5 0
    outer loop
      vertex -25.1058 -16.5155 10
      vertex -25.8558 -15.2165 0
      vertex -25.1058 -16.5155 3.33067e-16
    endloop
  endfacet
  facet normal -0.5 0.866025 -1.77321e-16
    outer loop
      vertex -25.8558 -15.2165 10
      vertex -12.7942 -7.67542 19.7304
      vertex -25.8558 -15.2165 0
    endloop
  endfacet
  facet normal -0.5 0.866025 -1.77321e-16
    outer loop
      vertex -25.8558 -15.2165 0
      vertex -12.7942 -7.67542 19.7304
      vertex -12.7942 -7.67542 0
    endloop
  endfacet
  facet normal -0.469496 -0.271063 0.840297
    outer loop
      vertex -12.7942 -7.67542 19.7304
      vertex -25.8558 -15.2165 10
      vertex -25.1058 -16.5155 10
    endloop
  endfacet
  facet normal -0.469496 -0.271063 0.840297
    outer loop
      vertex -12.1353 -8.81678 19.7304
      vertex -12.7942 -7.67542 19.7304
      vertex -25.1058 -16.5155 10
    endloop
  endfacet
  facet normal -0.469496 -0.271063 0.840297
    outer loop
      vertex -12.0107 -8.95511 19.7554
      vertex -12.1353 -8.81678 19.7304
      vertex -25.1058 -16.5155 10
    endloop
  endfacet
  facet normal 0.5 -0.866025 1.77321e-16
    outer loop
      vertex -12.0107 -8.95511 19.7554
      vertex -25.1058 -16.5155 10
      vertex -25.1058 -16.5155 3.33067e-16
    endloop
  endfacet
  facet normal 0.5 -0.866025 1.77321e-16
    outer loop
      vertex -12.0107 -8.95511 3.33067e-16
      vertex -12.0107 -8.95511 19.7554
      vertex -25.1058 -16.5155 3.33067e-16
    endloop
  endfacet
  facet normal 1.11022e-16 -1.92296e-16 -1
    outer loop
      vertex -25.8558 -15.2165 0
      vertex -12.7942 -7.67542 0
      vertex -25.1058 -16.5155 3.33067e-16
    endloop
  endfacet
  facet normal 1.11022e-16 -1.92296e-16 -1
    outer loop
      vertex -25.1058 -16.5155 3.33067e-16
      vertex -12.7942 -7.67542 0
      vertex -12.1353 -8.81678 2.92639e-16
    endloop
  endfacet
  facet normal 1.11022e-16 -1.92296e-16 -1
    outer loop
      vertex -25.1058 -16.5155 3.33067e-16
      vertex -12.1353 -8.81678 2.92639e-16
      vertex -12.0107 -8.95511 3.33067e-16
    endloop
  endfacet
  facet normal -0.866025 -0.5 0
    outer loop
      vertex -12.1353 -8.81678 2.92639e-16
      vertex -12.7942 -7.67542 0
      vertex -12.1353 -8.81678 0
    endloop
  endfacet
  facet normal 0 0 -1
    outer loop
      vertex -15 0 0
      vertex -14.6722 3.11867 0
      vertex -14.6722 -3.11867 0
    endloop
  endfacet
  facet normal 0 0 -1
    outer loop
      vertex -14.1831 3.01472 0
      vertex -14.6722 3.11867 0
      vertex -13.7032 6.10105 0
    endloop
  endfacet
  facet normal 0 0 -1
    outer loop
      vertex -13.2464 5.89768 0
      vertex -13.7032 6.10105 0
      vertex -12.1353 8.81678 0
    endloop
  endfacet
  facet normal 0 0 -1
    outer loop
      vertex -11.7307 8.52289 0
      vertex -12.1353 8.81678 0
      vertex -10.037 11.1472 0
    endloop
  endfacet
  facet normal 0 0 -1
    outer loop
      vertex -9.70239 10.7756 0
      vertex -10.037 11.1472 0
      vertex -7.5 12.9904 0
    endloop
  endfacet
  facet normal 0 0 -1
    outer loop
      vertex -7.25 12.5574 0
      vertex -7.5 12.9904 0
      vertex -4.63525 14.2658 0
    endloop
  endfacet
  facet normal 0 0 -1
    outer loop
      vertex -4.48075 13.7903 0
      vertex -4.63525 14.2658 0
      vertex -1.56793 14.9178 0
    endloop
  endfacet
  facet normal 0 0 -1
    outer loop
      vertex -0.75 14.4206 0
      vertex -1.56793 14.9178 0
      vertex -0.25 14.9178 0
    endloop
  endfacet
  facet normal 0 0 -1
    outer loop
      vertex 0.75 14.4206 0
      vertex -0.25 14.9178 0
      vertex 1.56793 14.9178 0
    endloop
  endfacet
  facet normal 0 0 -1
    outer loop
      vertex 1.51566 14.4206 0
      vertex 1.56793 14.9178 0
      vertex 4.63525 14.2658 0
    endloop
  endfacet
  facet normal 0 0 -1
    outer loop
      vertex 4.48075 13.7903 0
      vertex 4.63525 14.2658 0
      vertex 7.5 12.9904 0
    endloop
  endfacet
  facet normal 0 0 -1
    outer loop
      vertex 7.25 12.5574 0
      vertex 7.5 12.9904 0
      vertex 10.037 11.1472 0
    endloop
  endfacet
  facet normal 0 0 -1
    outer loop
      vertex 9.70239 10.7756 0
      vertex 10.037 11.1472 0
      vertex 12.1353 8.81678 0
    endloop
  endfacet
  facet normal 0 0 -1
    outer loop
      vertex 11.7307 8.52289 0
      vertex 12.1353 8.81678 0
      vertex 13.7032 6.10105 0
    endloop
  endfacet
  facet normal 0 0 -1
    outer loop
      vertex 14.1831 3.01472 0
      vertex 13.7032 6.10105 0
      vertex 14.6722 3.11867 0
    endloop
  endfacet
  facet normal 0 0 -1
    outer loop
      vertex 14.5 0 0
      vertex 14.6722 3.11867 0
      vertex 15 0 0
    endloop
  endfacet
  facet normal 0 0 -1
    outer loop
      vertex 13.2464 5.89768 0
      vertex 13.7032 6.10105 0
      vertex 14.1831 3.01472 0
    endloop
  endfacet
  facet normal 0 0 -1
    outer loop
      vertex 11.7307 8.52289 0
      vertex 13.7032 6.10105 0
      vertex 13.2464 5.89768 0
    endloop
  endfacet
  facet normal 0 0 -1
    outer loop
      vertex 9.70239 10.7756 0
      vertex 12.1353 8.81678 0
      vertex 11.7307 8.52289 0
    endloop
  endfacet
  facet normal 0 0 -1
    outer loop
      vertex 7.25 12.5574 0
      vertex 10.037 11.1472 0
      vertex 9.70239 10.7756 0
    endloop
  endfacet
  facet normal 0 0 -1
    outer loop
      vertex 4.48075 13.7903 0
      vertex 7.5 12.9904 0
      vertex 7.25 12.5574 0
    endloop
  endfacet
  facet normal 0 0 -1
    outer loop
      vertex 1.51566 14.4206 0
      vertex 4.63525 14.2658 0
      vertex 4.48075 13.7903 0
    endloop
  endfacet
  facet normal 0 0 -1
    outer loop
      vertex 0.75 11.9343 0
      vertex -0.75 11.9343 0
      vertex 0.75 14.4206 0
    endloop
  endfacet
  facet normal 0 0 -1
    outer loop
      vertex 0.75 14.4206 0
      vertex 1.56793 14.9178 0
      vertex 1.51566 14.4206 0
    endloop
  endfacet
  facet normal 0 0 -1
    outer loop
      vertex -0.75 14.4206 0
      vertex 0.75 14.4206 0
      vertex -0.75 11.9343 0
    endloop
  endfacet
  facet normal 0 0 -1
    outer loop
      vertex -0.75 14.4206 0
      vertex -0.25 14.9178 0
      vertex 0.75 14.4206 0
    endloop
  endfacet
  facet normal 0 0 -1
    outer loop
      vertex -1.51566 14.4206 0
      vertex -1.56793 14.9178 0
      vertex -0.75 14.4206 0
    endloop
  endfacet
  facet normal 0 0 -1
    outer loop
      vertex -4.48075 13.7903 0
      vertex -1.56793 14.9178 0
      vertex -1.51566 14.4206 0
    endloop
  endfacet
  facet normal 0 0 -1
    outer loop
      vertex -7.25 12.5574 0
      vertex -4.63525 14.2658 0
      vertex -4.48075 13.7903 0
    endloop
  endfacet
  facet normal 0 0 -1
    outer loop
      vertex -9.70239 10.7756 0
      vertex -7.5 12.9904 0
      vertex -7.25 12.5574 0
    endloop
  endfacet
  facet normal 0 0 -1
    outer loop
      vertex -11.7307 8.52289 0
      vertex -10.037 11.1472 0
      vertex -9.70239 10.7756 0
    endloop
  endfacet
  facet normal 0 0 -1
    outer loop
      vertex -13.2464 5.89768 0
      vertex -12.1353 8.81678 0
      vertex -11.7307 8.52289 0
    endloop
  endfacet
  facet normal 0 0 -1
    outer loop
      vertex -14.1831 3.01472 0
      vertex -13.7032 6.10105 0
      vertex -13.2464 5.89768 0
    endloop
  endfacet
  facet normal 0 0 -1
    outer loop
      vertex -14.5 0 0
      vertex -14.6722 3.11867 0
      vertex -14.1831 3.01472 0
    endloop
  endfacet
  facet normal 0 0 -1
    outer loop
      vertex -14.1831 -3.01472 0
      vertex -14.6722 -3.11867 0
      vertex -14.5 0 0
    endloop
  endfacet
  facet normal 0 0 -1
    outer loop
      vertex -14.6722 -3.11867 0
      vertex -14.6722 3.11867 0
      vertex -14.5 0 0
    endloop
  endfacet
  facet normal 0 0 -1
    outer loop
      vertex -9.96037 -6.61665 0
      vertex -12.8636 -6.56076 0
      vertex -10.7104 -5.31761 0
    endloop
  endfacet
  facet normal 0 0 -1
    outer loop
      vertex -13.2464 -5.89768 0
      vertex -12.1353 -8.81678 0
      vertex -14.6722 -3.11867 0
    endloop
  endfacet
  facet normal 0 0 -1
    outer loop
      vertex -12.8636 -6.56076 0
      vertex -9.96037 -6.61665 0
      vertex -12.1136 -7.8598 0
    endloop
  endfacet
  facet normal 0 0 -1
    outer loop
      vertex -12.8636 -6.56076 0
      vertex -12.1353 -8.81678 0
      vertex -13.2464 -5.89768 0
    endloop
  endfacet
  facet normal 0 0 -1
    outer loop
      vertex -12.1136 -7.8598 0
      vertex -12.1353 -8.81678 0
      vertex -12.8636 -6.56076 0
    endloop
  endfacet
  facet normal 0 0 -1
    outer loop
      vertex -1.51566 -14.4206 0
      vertex 0 -14.4206 0
      vertex 0 -14.9178 0
    endloop
  endfacet
  facet normal 0 0 -1
    outer loop
      vertex -1.51566 -14.4206 0
      vertex 0 -14.9178 0
      vertex -4.48075 -13.7903 0
    endloop
  endfacet
  facet normal 0 0 -1
    outer loop
      vertex -4.48075 -13.7903 0
      vertex 0 -14.9178 0
      vertex -1.56793 -14.9178 0
    endloop
  endfacet
  facet normal 0 0 -1
    outer loop
      vertex -4.48075 -13.7903 0
      vertex -1.56793 -14.9178 0
      vertex -4.63525 -14.2658 0
    endloop
  endfacet
  facet normal 0 0 -1
    outer loop
      vertex -4.48075 -13.7903 0
      vertex -4.63525 -14.2658 0
      vertex -7.25 -12.5574 0
    endloop
  endfacet
  facet normal 0 0 -1
    outer loop
      vertex -7.25 -12.5574 0
      vertex -4.63525 -14.2658 0
      vertex -7.5 -12.9904 0
    endloop
  endfacet
  facet normal 0 0 -1
    outer loop
      vertex -7.25 -12.5574 0
      vertex -7.5 -12.9904 0
      vertex -9.70239 -10.7756 0
    endloop
  endfacet
  facet normal 0 0 -1
    outer loop
      vertex -9.70239 -10.7756 0
      vertex -7.5 -12.9904 0
      vertex -10.037 -11.1472 0
    endloop
  endfacet
  facet normal 0 0 -1
    outer loop
      vertex -9.70239 -10.7756 0
      vertex -10.037 -11.1472 0
      vertex -11.7307 -8.52289 0
    endloop
  endfacet
  facet normal 0 0 -1
    outer loop
      vertex -11.7307 -8.52289 0
      vertex -10.037 -11.1472 0
      vertex -12.1353 -8.81678 0
    endloop
  endfacet
  facet normal 0 0 -1
    outer loop
      vertex -11.7307 -8.52289 0
      vertex -12.1353 -8.81678 0
      vertex -12.1136 -7.8598 0
    endloop
  endfacet
  facet normal 0 0 -1
    outer loop
      vertex -14.6722 -3.11867 0
      vertex -12.1353 -8.81678 0
      vertex -12.7942 -7.67542 0
    endloop
  endfacet
  facet normal 0 0 -1
    outer loop
      vertex -14.6722 -3.11867 0
      vertex -12.7942 -7.67542 0
      vertex -13.7032 -6.10105 0
    endloop
  endfacet
  facet normal 0 0 -1
    outer loop
      vertex 14.1831 3.01472 0
      vertex 14.6722 3.11867 0
      vertex 14.5 0 0
    endloop
  endfacet
  facet normal 0 0 -1
    outer loop
      vertex -13.2464 -5.89768 0
      vertex -14.6722 -3.11867 0
      vertex -14.1831 -3.01472 0
    endloop
  endfacet
  facet normal -0.866025 -0.5 0
    outer loop
      vertex -13.7032 -6.10105 0
      vertex -12.7942 -7.67542 0
      vertex -13.7032 -6.10105 150
    endloop
  endfacet
  facet normal -0.866025 -0.5 0
    outer loop
      vertex -13.7032 -6.10105 150
      vertex -12.7942 -7.67542 0
      vertex -12.7942 -7.67542 19.7304
    endloop
  endfacet
  facet normal -0.866025 -0.5 0
    outer loop
      vertex -13.7032 -6.10105 150
      vertex -12.7942 -7.67542 19.7304
      vertex -12.1353 -8.81678 19.7304
    endloop
  endfacet
  facet normal -0.866025 -0.5 0
    outer loop
      vertex -13.7032 -6.10105 150
      vertex -12.1353 -8.81678 19.7304
      vertex -12.1353 -8.81678 150
    endloop
  endfacet
  facet normal -0.743145 -0.669131 0
    outer loop
      vertex -12.1353 -8.81678 0
      vertex -10.037 -11.1472 0
      vertex -12.1353 -8.81678 2.92639e-16
    endloop
  endfacet
  facet normal -0.743145 -0.669131 0
    outer loop
      vertex -12.0107 -8.95511 3.33067e-16
      vertex -10.037 -11.1472 0
      vertex -10.037 -11.1472 150
    endloop
  endfacet
  facet normal -0.743145 -0.669131 0
    outer loop
      vertex -12.1353 -8.81678 19.7304
      vertex -10.037 -11.1472 150
      vertex -12.1353 -8.81678 150
    endloop
  endfacet
  facet normal -0.743145 -0.669131 0
    outer loop
      vertex -12.0107 -8.95511 19.7554
      vertex -10.037 -11.1472 150
      vertex -12.1353 -8.81678 19.7304
    endloop
  endfacet
  facet normal -0.743145 -0.669131 0
    outer loop
      vertex -12.1353 -8.81678 2.92639e-16
      vertex -10.037 -11.1472 0
      vertex -12.0107 -8.95511 3.33067e-16
    endloop
  endfacet
  facet normal -0.743145 -0.669131 0
    outer loop
      vertex -12.0107 -8.95511 3.33067e-16
      vertex -10.037 -11.1472 150
      vertex -12.0107 -8.95511 19.7554
    endloop
  endfacet
  facet normal -0.994522 -0.104528 0
    outer loop
      vertex -15 0 0
      vertex -14.6722 -3.11867 0
      vertex -15 0 150
    endloop
  endfacet
  facet normal -0.994522 -0.104528 0
    outer loop
      vertex -15 0 150
      vertex -14.6722 -3.11867 0
      vertex -14.6722 -3.11867 150
    endloop
  endfacet
  facet normal -0.951057 -0.309017 0
    outer loop
      vertex -14.6722 -3.11867 0
      vertex -13.7032 -6.10105 0
      vertex -14.6722 -3.11867 150
    endloop
  endfacet
  facet normal -0.951057 -0.309017 0
    outer loop
      vertex -14.6722 -3.11867 150
      vertex -13.7032 -6.10105 0
      vertex -13.7032 -6.10105 150
    endloop
  endfacet
  facet normal -0.587785 -0.809017 0
    outer loop
      vertex -10.037 -11.1472 150
      vertex -10.037 -11.1472 0
      vertex -7.5 -12.9904 0
    endloop
  endfacet
  facet normal -0.587785 -0.809017 0
    outer loop
      vertex -7.5 -12.9904 150
      vertex -10.037 -11.1472 150
      vertex -7.5 -12.9904 0
    endloop
  endfacet
  facet normal -0.406737 -0.913545 0
    outer loop
      vertex -7.5 -12.9904 150
      vertex -7.5 -12.9904 0
      vertex -4.63525 -14.2658 0
    endloop
  endfacet
  facet normal -0.406737 -0.913545 0
    outer loop
      vertex -4.63525 -14.2658 150
      vertex -7.5 -12.9904 150
      vertex -4.63525 -14.2658 0
    endloop
  endfacet
  facet normal -0.207911 -0.978148 0
    outer loop
      vertex -4.63525 -14.2658 150
      vertex -4.63525 -14.2658 0
      vertex -1.56793 -14.9178 0
    endloop
  endfacet
  facet normal -0.207911 -0.978148 0
    outer loop
      vertex -1.56793 -14.9178 150
      vertex -4.63525 -14.2658 150
      vertex -1.56793 -14.9178 0
    endloop
  endfacet
  facet normal 0 -1 0
    outer loop
      vertex -1.56793 -14.9178 150
      vertex -1.56793 -14.9178 0
      vertex 0 -14.9178 0
    endloop
  endfacet
  facet normal 0 -1 0
    outer loop
      vertex 0 -14.9178 150
      vertex -1.56793 -14.9178 150
      vertex 0 -14.9178 0
    endloop
  endfacet
  facet normal 1 0 0
    outer loop
      vertex 0 -14.4206 0
      vertex 0 -14.4206 150
      vertex 0 -14.9178 150
    endloop
  endfacet
  facet normal 1 0 0
    outer loop
      vertex 0 -14.9178 0
      vertex 0 -14.4206 0
      vertex 0 -14.9178 150
    endloop
  endfacet
  facet normal 0 1 0
    outer loop
      vertex 0 -14.4206 150
      vertex 0 -14.4206 0
      vertex -1.51566 -14.4206 150
    endloop
  endfacet
  facet normal 0 1 0
    outer loop
      vertex -1.51566 -14.4206 150
      vertex 0 -14.4206 0
      vertex -1.51566 -14.4206 0
    endloop
  endfacet
  facet normal 0.207912 0.978148 0
    outer loop
      vertex -1.51566 -14.4206 150
      vertex -1.51566 -14.4206 0
      vertex -4.48075 -13.7903 150
    endloop
  endfacet
  facet normal 0.207912 0.978148 0
    outer loop
      vertex -4.48075 -13.7903 150
      vertex -1.51566 -14.4206 0
      vertex -4.48075 -13.7903 0
    endloop
  endfacet
  facet normal 0.406737 0.913545 0
    outer loop
      vertex -4.48075 -13.7903 150
      vertex -4.48075 -13.7903 0
      vertex -7.25 -12.5574 150
    endloop
  endfacet
  facet normal 0.406737 0.913545 0
    outer loop
      vertex -7.25 -12.5574 150
      vertex -4.48075 -13.7903 0
      vertex -7.25 -12.5574 0
    endloop
  endfacet
  facet normal 0.587785 0.809017 0
    outer loop
      vertex -7.25 -12.5574 150
      vertex -7.25 -12.5574 0
      vertex -9.70239 -10.7756 150
    endloop
  endfacet
  facet normal 0.587785 0.809017 0
    outer loop
      vertex -9.70239 -10.7756 150
      vertex -7.25 -12.5574 0
      vertex -9.70239 -10.7756 0
    endloop
  endfacet
  facet normal 0.743145 0.66913 0
    outer loop
      vertex -11.7307 -8.52289 150
      vertex -9.70239 -10.7756 150
      vertex -9.70239 -10.7756 0
    endloop
  endfacet
  facet normal 0.743145 0.66913 0
    outer loop
      vertex -11.7307 -8.52289 0
      vertex -11.7307 -8.52289 150
      vertex -9.70239 -10.7756 0
    endloop
  endfacet
  facet normal 0.866025 0.5 0
    outer loop
      vertex -12.1136 -7.8598 70.001
      vertex -11.7307 -8.52289 150
      vertex -11.7307 -8.52289 0
    endloop
  endfacet
  facet normal 0.866025 0.5 0
    outer loop
      vertex -12.1136 -7.8598 76.7904
      vertex -12.8636 -6.56076 76.7904
      vertex -13.2464 -5.89768 150
    endloop
  endfacet
  facet normal 0.866025 0.5 0
    outer loop
      vertex -12.1136 -7.8598 76.7904
      vertex -11.7307 -8.52289 150
      vertex -12.1136 -7.8598 70.001
    endloop
  endfacet
  facet normal 0.866025 0.5 0
    outer loop
      vertex -13.2464 -5.89768 150
      vertex -11.7307 -8.52289 150
      vertex -12.1136 -7.8598 76.7904
    endloop
  endfacet
  facet normal 0.866025 0.5 0
    outer loop
      vertex -12.8636 -6.56076 70
      vertex -13.2464 -5.89768 150
      vertex -12.8636 -6.56076 76.7904
    endloop
  endfacet
  facet normal 0.866025 0.5 0
    outer loop
      vertex -12.8636 -6.56076 0
      vertex -13.2464 -5.89768 150
      vertex -12.8636 -6.56076 70
    endloop
  endfacet
  facet normal 0.866025 0.5 0
    outer loop
      vertex -13.2464 -5.89768 0
      vertex -13.2464 -5.89768 150
      vertex -12.8636 -6.56076 0
    endloop
  endfacet
  facet normal 0.866025 0.5 0
    outer loop
      vertex -12.1136 -7.8598 0
      vertex -12.1136 -7.8598 70.001
      vertex -11.7307 -8.52289 0
    endloop
  endfacet
  facet normal 0.5 -0.866025 0
    outer loop
      vertex -12.1136 -7.8598 70.001
      vertex -12.1136 -7.8598 0
      vertex -9.96037 -6.61665 0
    endloop
  endfacet
  facet normal 0.5 -0.866025 0
    outer loop
      vertex -9.96037 -6.61665 70.001
      vertex -12.1136 -7.8598 70.001
      vertex -9.96037 -6.61665 0
    endloop
  endfacet
  facet normal 0.866025 0.5 0
    outer loop
      vertex -9.96037 -6.61665 70.005
      vertex -9.96037 -6.61665 70.001
      vertex -9.96037 -6.61665 0
    endloop
  endfacet
  facet normal 0.866025 0.5 0
    outer loop
      vertex -9.96037 -6.61665 70.005
      vertex -9.96037 -6.61665 0
      vertex -10.7104 -5.31761 0
    endloop
  endfacet
  facet normal 0.866025 0.5 0
    outer loop
      vertex -9.96037 -6.61665 70.005
      vertex -10.7104 -5.31761 70
      vertex -10.7104 -5.31761 70.005
    endloop
  endfacet
  facet normal 0.866025 0.5 0
    outer loop
      vertex -9.96037 -6.61665 70.005
      vertex -10.7104 -5.31761 0
      vertex -10.7104 -5.31761 70
    endloop
  endfacet
  facet normal -0.5 0.866025 0
    outer loop
      vertex -12.8636 -6.56076 0
      vertex -12.8636 -6.56076 70
      vertex -10.7104 -5.31761 0
    endloop
  endfacet
  facet normal -0.5 0.866025 0
    outer loop
      vertex -10.7104 -5.31761 0
      vertex -12.8636 -6.56076 70
      vertex -10.7104 -5.31761 70
    endloop
  endfacet
  facet normal 0.951056 0.309017 0
    outer loop
      vertex -14.1831 -3.01472 150
      vertex -13.2464 -5.89768 150
      vertex -13.2464 -5.89768 0
    endloop
  endfacet
  facet normal 0.951056 0.309017 0
    outer loop
      vertex -14.1831 -3.01472 0
      vertex -14.1831 -3.01472 150
      vertex -13.2464 -5.89768 0
    endloop
  endfacet
  facet normal 0.994522 0.104529 0
    outer loop
      vertex -14.5 0 150
      vertex -14.1831 -3.01472 150
      vertex -14.1831 -3.01472 0
    endloop
  endfacet
  facet normal 0.994522 0.104529 0
    outer loop
      vertex -14.5 0 0
      vertex -14.5 0 150
      vertex -14.1831 -3.01472 0
    endloop
  endfacet
  facet normal 0.994522 -0.104529 0
    outer loop
      vertex -14.1831 3.01472 0
      vertex -14.1831 3.01472 150
      vertex -14.5 0 150
    endloop
  endfacet
  facet normal 0.994522 -0.104529 0
    outer loop
      vertex -14.5 0 0
      vertex -14.1831 3.01472 0
      vertex -14.5 0 150
    endloop
  endfacet
  facet normal 0.951056 -0.309017 0
    outer loop
      vertex -13.2464 5.89768 0
      vertex -13.2464 5.89768 150
      vertex -14.1831 3.01472 150
    endloop
  endfacet
  facet normal 0.951056 -0.309017 0
    outer loop
      vertex -14.1831 3.01472 0
      vertex -13.2464 5.89768 0
      vertex -14.1831 3.01472 150
    endloop
  endfacet
  facet normal 0.866025 -0.5 0
    outer loop
      vertex -11.7307 8.52289 0
      vertex -11.7307 8.52289 150
      vertex -13.2464 5.89768 150
    endloop
  endfacet
  facet normal 0.866025 -0.5 0
    outer loop
      vertex -13.2464 5.89768 0
      vertex -11.7307 8.52289 0
      vertex -13.2464 5.89768 150
    endloop
  endfacet
  facet normal 0.743145 -0.66913 0
    outer loop
      vertex -9.70239 10.7756 0
      vertex -9.70239 10.7756 150
      vertex -11.7307 8.52289 150
    endloop
  endfacet
  facet normal 0.743145 -0.66913 0
    outer loop
      vertex -11.7307 8.52289 0
      vertex -9.70239 10.7756 0
      vertex -11.7307 8.52289 150
    endloop
  endfacet
  facet normal 0.587785 -0.809017 0
    outer loop
      vertex -7.25 12.5574 0
      vertex -7.25 12.5574 150
      vertex -9.70239 10.7756 150
    endloop
  endfacet
  facet normal 0.587785 -0.809017 0
    outer loop
      vertex -9.70239 10.7756 0
      vertex -7.25 12.5574 0
      vertex -9.70239 10.7756 150
    endloop
  endfacet
  facet normal 0.406737 -0.913545 0
    outer loop
      vertex -4.48075 13.7903 0
      vertex -4.48075 13.7903 150
      vertex -7.25 12.5574 150
    endloop
  endfacet
  facet normal 0.406737 -0.913545 0
    outer loop
      vertex -7.25 12.5574 0
      vertex -4.48075 13.7903 0
      vertex -7.25 12.5574 150
    endloop
  endfacet
  facet normal 0.207912 -0.978148 0
    outer loop
      vertex -1.51566 14.4206 0
      vertex -1.51566 14.4206 150
      vertex -4.48075 13.7903 150
    endloop
  endfacet
  facet normal 0.207912 -0.978148 0
    outer loop
      vertex -4.48075 13.7903 0
      vertex -1.51566 14.4206 0
      vertex -4.48075 13.7903 150
    endloop
  endfacet
  facet normal 0 -1 0
    outer loop
      vertex 1.68317e-15 14.4206 76.7904
      vertex 0.75 14.4206 76.7904
      vertex -0.75 14.4206 76.7904
    endloop
  endfacet
  facet normal 0 -1 0
    outer loop
      vertex -0.75 14.4206 76.7904
      vertex -1.51566 14.4206 150
      vertex -0.75 14.4206 70.001
    endloop
  endfacet
  facet normal 0 -1 0
    outer loop
      vertex -0.75 14.4206 0
      vertex -0.75 14.4206 70.001
      vertex -1.51566 14.4206 150
    endloop
  endfacet
  facet normal 0 -1 0
    outer loop
      vertex 0.75 14.4206 76.7904
      vertex 1.51566 14.4206 150
      vertex -0.75 14.4206 76.7904
    endloop
  endfacet
  facet normal 0 -1 0
    outer loop
      vertex 0.75 14.4206 70
      vertex 0.75 14.4206 0
      vertex 0.75 14.4206 76.7904
    endloop
  endfacet
  facet normal 0 -1 0
    outer loop
      vertex 0.75 14.4206 0
      vertex 1.51566 14.4206 0
      vertex 0.75 14.4206 76.7904
    endloop
  endfacet
  facet normal 0 -1 0
    outer loop
      vertex 1.51566 14.4206 0
      vertex 1.51566 14.4206 150
      vertex 0.75 14.4206 76.7904
    endloop
  endfacet
  facet normal 0 -1 0
    outer loop
      vertex 1.51566 14.4206 150
      vertex -1.51566 14.4206 150
      vertex -0.75 14.4206 76.7904
    endloop
  endfacet
  facet normal 0 -1 0
    outer loop
      vertex -1.51566 14.4206 150
      vertex -1.51566 14.4206 0
      vertex -0.75 14.4206 0
    endloop
  endfacet
  facet normal -1 0 0
    outer loop
      vertex -0.75 11.9343 0
      vertex -0.75 11.9343 70.001
      vertex -0.75 14.4206 0
    endloop
  endfacet
  facet normal -1 0 0
    outer loop
      vertex -0.75 14.4206 0
      vertex -0.75 11.9343 70.001
      vertex -0.75 14.4206 70.001
    endloop
  endfacet
  facet normal 0 -1 0
    outer loop
      vertex 0.75 11.9343 0
      vertex 0.75 11.9343 70
      vertex -0.75 11.9343 70.005
    endloop
  endfacet
  facet normal 0 -1 0
    outer loop
      vertex -0.75 11.9343 70.005
      vertex 0.75 11.9343 70
      vertex 0.75 11.9343 70.005
    endloop
  endfacet
  facet normal 0 -1 0
    outer loop
      vertex 0.75 11.9343 0
      vertex -0.75 11.9343 70.005
      vertex -0.75 11.9343 70.001
    endloop
  endfacet
  facet normal 0 -1 0
    outer loop
      vertex 0.75 11.9343 0
      vertex -0.75 11.9343 70.001
      vertex -0.75 11.9343 0
    endloop
  endfacet
  facet normal 1 -2.44921e-16 0
    outer loop
      vertex 0.75 11.9343 70
      vertex 0.75 11.9343 0
      vertex 0.75 14.4206 0
    endloop
  endfacet
  facet normal 1 -2.44921e-16 0
    outer loop
      vertex 0.75 14.4206 70
      vertex 0.75 11.9343 70
      vertex 0.75 14.4206 0
    endloop
  endfacet
  facet normal -0.207912 -0.978148 0
    outer loop
      vertex 4.48075 13.7903 0
      vertex 4.48075 13.7903 150
      vertex 1.51566 14.4206 150
    endloop
  endfacet
  facet normal -0.207912 -0.978148 0
    outer loop
      vertex 1.51566 14.4206 0
      vertex 4.48075 13.7903 0
      vertex 1.51566 14.4206 150
    endloop
  endfacet
  facet normal -0.406737 -0.913545 0
    outer loop
      vertex 7.25 12.5574 0
      vertex 7.25 12.5574 150
      vertex 4.48075 13.7903 150
    endloop
  endfacet
  facet normal -0.406737 -0.913545 0
    outer loop
      vertex 4.48075 13.7903 0
      vertex 7.25 12.5574 0
      vertex 4.48075 13.7903 150
    endloop
  endfacet
  facet normal -0.587785 -0.809017 0
    outer loop
      vertex 9.70239 10.7756 0
      vertex 9.70239 10.7756 150
      vertex 7.25 12.5574 150
    endloop
  endfacet
  facet normal -0.587785 -0.809017 0
    outer loop
      vertex 7.25 12.5574 0
      vertex 9.70239 10.7756 0
      vertex 7.25 12.5574 150
    endloop
  endfacet
  facet normal -0.743145 -0.66913 0
    outer loop
      vertex 11.7307 8.52289 150
      vertex 9.70239 10.7756 150
      vertex 11.7307 8.52289 0
    endloop
  endfacet
  facet normal -0.743145 -0.66913 0
    outer loop
      vertex 11.7307 8.52289 0
      vertex 9.70239 10.7756 150
      vertex 9.70239 10.7756 0
    endloop
  endfacet
  facet normal -0.866025 -0.5 0
    outer loop
      vertex 13.2464 5.89768 150
      vertex 11.7307 8.52289 150
      vertex 13.2464 5.89768 0
    endloop
  endfacet
  facet normal -0.866025 -0.5 0
    outer loop
      vertex 13.2464 5.89768 0
      vertex 11.7307 8.52289 150
      vertex 11.7307 8.52289 0
    endloop
  endfacet
  facet normal -0.951056 -0.309017 0
    outer loop
      vertex 14.1831 3.01472 150
      vertex 13.2464 5.89768 150
      vertex 14.1831 3.01472 0
    endloop
  endfacet
  facet normal -0.951056 -0.309017 0
    outer loop
      vertex 14.1831 3.01472 0
      vertex 13.2464 5.89768 150
      vertex 13.2464 5.89768 0
    endloop
  endfacet
  facet normal -0.994522 -0.104529 0
    outer loop
      vertex 14.5 0 150
      vertex 14.1831 3.01472 150
      vertex 14.5 0 0
    endloop
  endfacet
  facet normal -0.994522 -0.104529 0
    outer loop
      vertex 14.5 0 0
      vertex 14.1831 3.01472 150
      vertex 14.1831 3.01472 0
    endloop
  endfacet
  facet normal 0 -1 0
    outer loop
      vertex 15 0 0
      vertex 15 0 150
      vertex 14.5 0 150
    endloop
  endfacet
  facet normal 0 -1 0
    outer loop
      vertex 14.5 0 0
      vertex 15 0 0
      vertex 14.5 0 150
    endloop
  endfacet
  facet normal 0.994522 0.104528 0
    outer loop
      vertex 15 0 0
      vertex 14.6722 3.11867 0
      vertex 14.6722 3.11867 150
    endloop
  endfacet
  facet normal 0.994522 0.104528 0
    outer loop
      vertex 15 0 150
      vertex 15 0 0
      vertex 14.6722 3.11867 150
    endloop
  endfacet
  facet normal 0.951057 0.309017 0
    outer loop
      vertex 14.6722 3.11867 0
      vertex 13.7032 6.10105 0
      vertex 13.7032 6.10105 150
    endloop
  endfacet
  facet normal 0.951057 0.309017 0
    outer loop
      vertex 14.6722 3.11867 150
      vertex 14.6722 3.11867 0
      vertex 13.7032 6.10105 150
    endloop
  endfacet
  facet normal 0.866025 0.5 0
    outer loop
      vertex 13.7032 6.10105 0
      vertex 12.1353 8.81678 0
      vertex 12.1353 8.81678 150
    endloop
  endfacet
  facet normal 0.866025 0.5 0
    outer loop
      vertex 13.7032 6.10105 150
      vertex 13.7032 6.10105 0
      vertex 12.1353 8.81678 150
    endloop
  endfacet
  facet normal 0.743145 0.669131 0
    outer loop
      vertex 12.1353 8.81678 0
      vertex 10.037 11.1472 0
      vertex 10.037 11.1472 150
    endloop
  endfacet
  facet normal 0.743145 0.669131 0
    outer loop
      vertex 12.1353 8.81678 150
      vertex 12.1353 8.81678 0
      vertex 10.037 11.1472 150
    endloop
  endfacet
  facet normal 0.587785 0.809017 0
    outer loop
      vertex 7.5 12.9904 0
      vertex 7.5 12.9904 150
      vertex 10.037 11.1472 0
    endloop
  endfacet
  facet normal 0.587785 0.809017 0
    outer loop
      vertex 10.037 11.1472 0
      vertex 7.5 12.9904 150
      vertex 10.037 11.1472 150
    endloop
  endfacet
  facet normal 0.406737 0.913545 0
    outer loop
      vertex 4.63525 14.2658 0
      vertex 4.63525 14.2658 150
      vertex 7.5 12.9904 0
    endloop
  endfacet
  facet normal 0.406737 0.913545 0
    outer loop
      vertex 7.5 12.9904 0
      vertex 4.63525 14.2658 150
      vertex 7.5 12.9904 150
    endloop
  endfacet
  facet normal 0.207911 0.978148 0
    outer loop
      vertex 1.56793 14.9178 0
      vertex 1.56793 14.9178 150
      vertex 4.63525 14.2658 0
    endloop
  endfacet
  facet normal 0.207911 0.978148 0
    outer loop
      vertex 4.63525 14.2658 0
      vertex 1.56793 14.9178 150
      vertex 4.63525 14.2658 150
    endloop
  endfacet
  facet normal 0 1 0
    outer loop
      vertex -1.56793 14.9178 19.7304
      vertex -1.56793 14.9178 150
      vertex -0.25 14.9178 19.7304
    endloop
  endfacet
  facet normal 0 1 0
    outer loop
      vertex -0.25 14.9178 19.7304
      vertex -1.56793 14.9178 150
      vertex 1.56793 14.9178 150
    endloop
  endfacet
  facet normal 0 1 0
    outer loop
      vertex -0.25 14.9178 19.7304
      vertex 1.56793 14.9178 150
      vertex 1.56793 14.9178 0
    endloop
  endfacet
  facet normal 0 1 0
    outer loop
      vertex -0.25 14.9178 19.7304
      vertex 1.56793 14.9178 0
      vertex -0.25 14.9178 0
    endloop
  endfacet
  facet normal 1 -2.44921e-16 -1.77321e-16
    outer loop
      vertex -0.25 14.9178 19.7304
      vertex -0.25 14.9178 0
      vertex -0.25 30 0
    endloop
  endfacet
  facet normal 1 -2.44921e-16 -1.77321e-16
    outer loop
      vertex -0.25 30 10
      vertex -0.25 14.9178 19.7304
      vertex -0.25 30 0
    endloop
  endfacet
  facet normal -2.22045e-16 5.43834e-32 -1
    outer loop
      vertex -0.25 30 1.6315e-30
      vertex -1.75 30 3.33067e-16
      vertex -0.25 30 0
    endloop
  endfacet
  facet normal -2.22045e-16 5.43834e-32 -1
    outer loop
      vertex -0.25 30 1.6315e-30
      vertex -0.25 30 0
      vertex -0.25 14.9178 0
    endloop
  endfacet
  facet normal -2.22045e-16 5.43834e-32 -1
    outer loop
      vertex -0.25 30 1.6315e-30
      vertex -0.25 14.9178 0
      vertex -0.25 14.9178 8.11283e-31
    endloop
  endfacet
  facet normal 1 0 -1.77321e-16
    outer loop
      vertex -0.25 14.9178 8.11283e-31
      vertex -0.25 14.9178 0
      vertex -0.25 30 0
    endloop
  endfacet
  facet normal 1 0 -1.77321e-16
    outer loop
      vertex -0.25 30 1.6315e-30
      vertex -0.25 14.9178 8.11283e-31
      vertex -0.25 30 0
    endloop
  endfacet
  facet normal -2.22045e-16 0 -1
    outer loop
      vertex -1.75 14.8791 3.33067e-16
      vertex -1.75 30 3.33067e-16
      vertex -1.56793 14.9178 2.92639e-16
    endloop
  endfacet
  facet normal -2.22045e-16 0 -1
    outer loop
      vertex -1.56793 14.9178 2.92639e-16
      vertex -1.75 30 3.33067e-16
      vertex -0.25 30 0
    endloop
  endfacet
  facet normal -2.22045e-16 0 -1
    outer loop
      vertex -1.56793 14.9178 2.92639e-16
      vertex -0.25 30 0
      vertex -0.25 14.9178 0
    endloop
  endfacet
  facet normal 0 1 0
    outer loop
      vertex -0.25 14.9178 0
      vertex -1.56793 14.9178 0
      vertex -1.56793 14.9178 2.92639e-16
    endloop
  endfacet
  facet normal -0.207911 0.978148 0
    outer loop
      vertex -1.56793 14.9178 2.92639e-16
      vertex -1.56793 14.9178 0
      vertex -1.75 14.8791 3.33067e-16
    endloop
  endfacet
  facet normal -0.207911 0.978148 0
    outer loop
      vertex -1.56793 14.9178 19.7304
      vertex -4.63525 14.2658 150
      vertex -1.56793 14.9178 150
    endloop
  endfacet
  facet normal -0.207911 0.978148 0
    outer loop
      vertex -1.75 14.8791 19.7554
      vertex -4.63525 14.2658 150
      vertex -1.56793 14.9178 19.7304
    endloop
  endfacet
  facet normal -0.207911 0.978148 0
    outer loop
      vertex -4.63525 14.2658 0
      vertex -4.63525 14.2658 150
      vertex -1.75 14.8791 3.33067e-16
    endloop
  endfacet
  facet normal -0.207911 0.978148 0
    outer loop
      vertex -4.63525 14.2658 0
      vertex -1.75 14.8791 3.33067e-16
      vertex -1.56793 14.9178 0
    endloop
  endfacet
  facet normal -0.207911 0.978148 0
    outer loop
      vertex -1.75 14.8791 3.33067e-16
      vertex -4.63525 14.2658 150
      vertex -1.75 14.8791 19.7554
    endloop
  endfacet
  facet normal -0.406737 0.913545 0
    outer loop
      vertex -7.5 12.9904 0
      vertex -7.5 12.9904 150
      vertex -4.63525 14.2658 0
    endloop
  endfacet
  facet normal -0.406737 0.913545 0
    outer loop
      vertex -4.63525 14.2658 0
      vertex -7.5 12.9904 150
      vertex -4.63525 14.2658 150
    endloop
  endfacet
  facet normal -0.587785 0.809017 0
    outer loop
      vertex -10.037 11.1472 0
      vertex -10.037 11.1472 150
      vertex -7.5 12.9904 0
    endloop
  endfacet
  facet normal -0.587785 0.809017 0
    outer loop
      vertex -7.5 12.9904 0
      vertex -10.037 11.1472 150
      vertex -7.5 12.9904 150
    endloop
  endfacet
  facet normal -0.743145 0.669131 0
    outer loop
      vertex -12.1353 8.81678 0
      vertex -12.1353 8.81678 150
      vertex -10.037 11.1472 0
    endloop
  endfacet
  facet normal -0.743145 0.669131 0
    outer loop
      vertex -10.037 11.1472 0
      vertex -12.1353 8.81678 150
      vertex -10.037 11.1472 150
    endloop
  endfacet
  facet normal -0.866025 0.5 0
    outer loop
      vertex -13.7032 6.10105 0
      vertex -13.7032 6.10105 150
      vertex -12.1353 8.81678 0
    endloop
  endfacet
  facet normal -0.866025 0.5 0
    outer loop
      vertex -12.1353 8.81678 0
      vertex -13.7032 6.10105 150
      vertex -12.1353 8.81678 150
    endloop
  endfacet
  facet normal -0.951057 0.309017 0
    outer loop
      vertex -14.6722 3.11867 0
      vertex -14.6722 3.11867 150
      vertex -13.7032 6.10105 0
    endloop
  endfacet
  facet normal -0.951057 0.309017 0
    outer loop
      vertex -13.7032 6.10105 0
      vertex -14.6722 3.11867 150
      vertex -13.7032 6.10105 150
    endloop
  endfacet
  facet normal -0.994522 0.104528 0
    outer loop
      vertex -15 0 0
      vertex -15 0 150
      vertex -14.6722 3.11867 0
    endloop
  endfacet
  facet normal -0.994522 0.104528 0
    outer loop
      vertex -14.6722 3.11867 0
      vertex -15 0 150
      vertex -14.6722 3.11867 150
    endloop
  endfacet
  facet normal 0 0 1
    outer loop
      vertex -14.6722 3.11867 150
      vertex -15 0 150
      vertex -14.6722 -3.11867 150
    endloop
  endfacet
  facet normal 0 0 1
    outer loop
      vertex -14.5 0 150
      vertex -14.6722 3.11867 150
      vertex -14.6722 -3.11867 150
    endloop
  endfacet
  facet normal 0 0 1
    outer loop
      vertex -13.2464 -5.89768 150
      vertex -14.1831 -3.01472 150
      vertex -13.7032 -6.10105 150
    endloop
  endfacet
  facet normal 0 0 1
    outer loop
      vertex -11.7307 -8.52289 150
      vertex -13.2464 -5.89768 150
      vertex -12.1353 -8.81678 150
    endloop
  endfacet
  facet normal 0 0 1
    outer loop
      vertex -9.70239 -10.7756 150
      vertex -11.7307 -8.52289 150
      vertex -10.037 -11.1472 150
    endloop
  endfacet
  facet normal 0 0 1
    outer loop
      vertex -7.25 -12.5574 150
      vertex -9.70239 -10.7756 150
      vertex -7.5 -12.9904 150
    endloop
  endfacet
  facet normal 0 0 1
    outer loop
      vertex -4.48075 -13.7903 150
      vertex -7.25 -12.5574 150
      vertex -4.63525 -14.2658 150
    endloop
  endfacet
  facet normal 0 0 1
    outer loop
      vertex -1.51566 -14.4206 150
      vertex -4.48075 -13.7903 150
      vertex -1.56793 -14.9178 150
    endloop
  endfacet
  facet normal 0 0 1
    outer loop
      vertex 0 -14.9178 150
      vertex -1.51566 -14.4206 150
      vertex -1.56793 -14.9178 150
    endloop
  endfacet
  facet normal 0 0 1
    outer loop
      vertex -1.56793 -14.9178 150
      vertex -4.48075 -13.7903 150
      vertex -4.63525 -14.2658 150
    endloop
  endfacet
  facet normal 0 0 1
    outer loop
      vertex -4.63525 -14.2658 150
      vertex -7.25 -12.5574 150
      vertex -7.5 -12.9904 150
    endloop
  endfacet
  facet normal 0 0 1
    outer loop
      vertex -7.5 -12.9904 150
      vertex -9.70239 -10.7756 150
      vertex -10.037 -11.1472 150
    endloop
  endfacet
  facet normal 0 0 1
    outer loop
      vertex -10.037 -11.1472 150
      vertex -11.7307 -8.52289 150
      vertex -12.1353 -8.81678 150
    endloop
  endfacet
  facet normal 0 0 1
    outer loop
      vertex -12.1353 -8.81678 150
      vertex -13.2464 -5.89768 150
      vertex -13.7032 -6.10105 150
    endloop
  endfacet
  facet normal 0 0 1
    outer loop
      vertex -13.7032 -6.10105 150
      vertex -14.1831 -3.01472 150
      vertex -14.6722 -3.11867 150
    endloop
  endfacet
  facet normal 0 0 1
    outer loop
      vertex -14.1831 -3.01472 150
      vertex -14.5 0 150
      vertex -14.6722 -3.11867 150
    endloop
  endfacet
  facet normal 0 0 1
    outer loop
      vertex -13.2464 5.89768 150
      vertex -14.6722 3.11867 150
      vertex -14.1831 3.01472 150
    endloop
  endfacet
  facet normal 0 0 1
    outer loop
      vertex -12.1353 8.81678 150
      vertex -14.6722 3.11867 150
      vertex -13.2464 5.89768 150
    endloop
  endfacet
  facet normal 0 0 1
    outer loop
      vertex -12.1353 8.81678 150
      vertex -13.2464 5.89768 150
      vertex -11.7307 8.52289 150
    endloop
  endfacet
  facet normal 0 0 1
    outer loop
      vertex -10.037 11.1472 150
      vertex -11.7307 8.52289 150
      vertex -9.70239 10.7756 150
    endloop
  endfacet
  facet normal 0 0 1
    outer loop
      vertex -7.5 12.9904 150
      vertex -9.70239 10.7756 150
      vertex -7.25 12.5574 150
    endloop
  endfacet
  facet normal 0 0 1
    outer loop
      vertex -4.63525 14.2658 150
      vertex -7.25 12.5574 150
      vertex -4.48075 13.7903 150
    endloop
  endfacet
  facet normal 0 0 1
    outer loop
      vertex -1.56793 14.9178 150
      vertex -4.48075 13.7903 150
      vertex -1.51566 14.4206 150
    endloop
  endfacet
  facet normal 0 0 1
    outer loop
      vertex 1.56793 14.9178 150
      vertex -1.51566 14.4206 150
      vertex 1.51566 14.4206 150
    endloop
  endfacet
  facet normal 0 0 1
    outer loop
      vertex 4.63525 14.2658 150
      vertex 1.51566 14.4206 150
      vertex 4.48075 13.7903 150
    endloop
  endfacet
  facet normal 0 0 1
    outer loop
      vertex 7.5 12.9904 150
      vertex 4.48075 13.7903 150
      vertex 7.25 12.5574 150
    endloop
  endfacet
  facet normal 0 0 1
    outer loop
      vertex 10.037 11.1472 150
      vertex 7.25 12.5574 150
      vertex 9.70239 10.7756 150
    endloop
  endfacet
  facet normal 0 0 1
    outer loop
      vertex 12.1353 8.81678 150
      vertex 9.70239 10.7756 150
      vertex 11.7307 8.52289 150
    endloop
  endfacet
  facet normal 0 0 1
    outer loop
      vertex 13.7032 6.10105 150
      vertex 11.7307 8.52289 150
      vertex 13.2464 5.89768 150
    endloop
  endfacet
  facet normal 0 0 1
    outer loop
      vertex 14.6722 3.11867 150
      vertex 13.2464 5.89768 150
      vertex 14.1831 3.01472 150
    endloop
  endfacet
  facet normal 0 0 1
    outer loop
      vertex 15 0 150
      vertex 14.1831 3.01472 150
      vertex 14.5 0 150
    endloop
  endfacet
  facet normal 0 0 1
    outer loop
      vertex 14.6722 3.11867 150
      vertex 14.1831 3.01472 150
      vertex 15 0 150
    endloop
  endfacet
  facet normal 0 0 1
    outer loop
      vertex 13.7032 6.10105 150
      vertex 13.2464 5.89768 150
      vertex 14.6722 3.11867 150
    endloop
  endfacet
  facet normal 0 0 1
    outer loop
      vertex 12.1353 8.81678 150
      vertex 11.7307 8.52289 150
      vertex 13.7032 6.10105 150
    endloop
  endfacet
  facet normal 0 0 1
    outer loop
      vertex 10.037 11.1472 150
      vertex 9.70239 10.7756 150
      vertex 12.1353 8.81678 150
    endloop
  endfacet
  facet normal 0 0 1
    outer loop
      vertex 7.5 12.9904 150
      vertex 7.25 12.5574 150
      vertex 10.037 11.1472 150
    endloop
  endfacet
  facet normal 0 0 1
    outer loop
      vertex 4.63525 14.2658 150
      vertex 4.48075 13.7903 150
      vertex 7.5 12.9904 150
    endloop
  endfacet
  facet normal 0 0 1
    outer loop
      vertex 1.56793 14.9178 150
      vertex 1.51566 14.4206 150
      vertex 4.63525 14.2658 150
    endloop
  endfacet
  facet normal 0 0 1
    outer loop
      vertex -1.56793 14.9178 150
      vertex -1.51566 14.4206 150
      vertex 1.56793 14.9178 150
    endloop
  endfacet
  facet normal 0 0 1
    outer loop
      vertex -4.63525 14.2658 150
      vertex -4.48075 13.7903 150
      vertex -1.56793 14.9178 150
    endloop
  endfacet
  facet normal 0 0 1
    outer loop
      vertex -7.5 12.9904 150
      vertex -7.25 12.5574 150
      vertex -4.63525 14.2658 150
    endloop
  endfacet
  facet normal 0 0 1
    outer loop
      vertex -10.037 11.1472 150
      vertex -9.70239 10.7756 150
      vertex -7.5 12.9904 150
    endloop
  endfacet
  facet normal 0 0 1
    outer loop
      vertex -12.1353 8.81678 150
      vertex -11.7307 8.52289 150
      vertex -10.037 11.1472 150
    endloop
  endfacet
  facet normal 0 0 1
    outer loop
      vertex -13.7032 6.10105 150
      vertex -14.6722 3.11867 150
      vertex -12.1353 8.81678 150
    endloop
  endfacet
  facet normal 0 0 1
    outer loop
      vertex 0 -14.4206 150
      vertex -1.51566 -14.4206 150
      vertex 0 -14.9178 150
    endloop
  endfacet
  facet normal 0 0 1
    outer loop
      vertex -14.5 0 150
      vertex -14.1831 3.01472 150
      vertex -14.6722 3.11867 150
    endloop
  endfacet
  facet normal -0.5 0.866025 -1.77321e-16
    outer loop
      vertex -12.8636 -6.56076 76.7904
      vertex -10.7104 -5.31761 70.005
      vertex -12.8636 -6.56076 70
    endloop
  endfacet
  facet normal -0.5 0.866025 -1.77321e-16
    outer loop
      vertex -12.8636 -6.56076 76.7904
      vertex -9.47077 -4.60192 70.005
      vertex -10.7104 -5.31761 70.005
    endloop
  endfacet
  facet normal -0.5 0.866025 -1.77321e-16
    outer loop
      vertex -10.7104 -5.31761 70
      vertex -12.8636 -6.56076 70
      vertex -10.7104 -5.31761 70.005
    endloop
  endfacet
  facet normal 0.749994 0.43301 0.500011
    outer loop
      vertex -9.47077 -4.60192 70.005
      vertex -12.8636 -6.56076 76.7904
      vertex -12.1136 -7.8598 76.7904
    endloop
  endfacet
  facet normal 0.749994 0.43301 0.500011
    outer loop
      vertex -8.72077 -5.90096 70.005
      vertex -9.47077 -4.60192 70.005
      vertex -12.1136 -7.8598 76.7904
    endloop
  endfacet
  facet normal 0.5 -0.866025 1.77321e-16
    outer loop
      vertex -9.96037 -6.61665 70.005
      vertex -12.1136 -7.8598 76.7904
      vertex -12.1136 -7.8598 70.001
    endloop
  endfacet
  facet normal 0.5 -0.866025 1.77321e-16
    outer loop
      vertex -8.72077 -5.90096 70.005
      vertex -12.1136 -7.8598 76.7904
      vertex -9.96037 -6.61665 70.005
    endloop
  endfacet
  facet normal 0.5 -0.866025 1.77321e-16
    outer loop
      vertex -9.96037 -6.61665 70.001
      vertex -9.96037 -6.61665 70.005
      vertex -12.1136 -7.8598 70.001
    endloop
  endfacet
  facet normal 0 0 -1
    outer loop
      vertex -8.72077 -5.90096 70.005
      vertex -9.96037 -6.61665 70.005
      vertex -9.47077 -4.60192 70.005
    endloop
  endfacet
  facet normal 0 0 -1
    outer loop
      vertex -9.47077 -4.60192 70.005
      vertex -9.96037 -6.61665 70.005
      vertex -10.7104 -5.31761 70.005
    endloop
  endfacet
  facet normal 1 -2.44921e-16 -1.77321e-16
    outer loop
      vertex 0.75 14.4206 76.7904
      vertex 0.75 10.5029 70.005
      vertex 0.75 11.9343 70.005
    endloop
  endfacet
  facet normal 1 -2.44921e-16 -1.77321e-16
    outer loop
      vertex 0.75 11.9343 70
      vertex 0.75 14.4206 76.7904
      vertex 0.75 11.9343 70.005
    endloop
  endfacet
  facet normal 1 -2.44921e-16 -1.77321e-16
    outer loop
      vertex 0.75 11.9343 70
      vertex 0.75 14.4206 70
      vertex 0.75 14.4206 76.7904
    endloop
  endfacet
  facet normal -1.01082e-16 -0.866019 0.500011
    outer loop
      vertex 1.68317e-15 14.4206 76.7904
      vertex 1.2259e-15 10.5029 70.005
      vertex 0.75 10.5029 70.005
    endloop
  endfacet
  facet normal -1.01082e-16 -0.866019 0.500011
    outer loop
      vertex 0.75 14.4206 76.7904
      vertex 1.68317e-15 14.4206 76.7904
      vertex 0.75 10.5029 70.005
    endloop
  endfacet
  facet normal 1.11025e-16 -0.866019 0.500011
    outer loop
      vertex -0.75 14.4206 76.7904
      vertex -0.75 10.5029 70.005
      vertex 1.2259e-15 10.5029 70.005
    endloop
  endfacet
  facet normal 1.11025e-16 -0.866019 0.500011
    outer loop
      vertex 1.68317e-15 14.4206 76.7904
      vertex -0.75 14.4206 76.7904
      vertex 1.2259e-15 10.5029 70.005
    endloop
  endfacet
  facet normal -1 0 1.77321e-16
    outer loop
      vertex -0.75 11.9343 70.001
      vertex -0.75 11.9343 70.005
      vertex -0.75 14.4206 70.001
    endloop
  endfacet
  facet normal -1 0 1.77321e-16
    outer loop
      vertex -0.75 14.4206 76.7904
      vertex -0.75 11.9343 70.005
      vertex -0.75 10.5029 70.005
    endloop
  endfacet
  facet normal -1 0 1.77321e-16
    outer loop
      vertex -0.75 14.4206 70.001
      vertex -0.75 11.9343 70.005
      vertex -0.75 14.4206 76.7904
    endloop
  endfacet
  facet normal 0 0 -1
    outer loop
      vertex 0.75 11.9343 70.005
      vertex 0.75 10.5029 70.005
      vertex -0.75 11.9343 70.005
    endloop
  endfacet
  facet normal 0 0 -1
    outer loop
      vertex -0.75 11.9343 70.005
      vertex 0.75 10.5029 70.005
      vertex 1.2259e-15 10.5029 70.005
    endloop
  endfacet
  facet normal 0 0 -1
    outer loop
      vertex -0.75 11.9343 70.005
      vertex 1.2259e-15 10.5029 70.005
      vertex -0.75 10.5029 70.005
    endloop
  endfacet
  facet normal 3.19362e-16 0.542127 0.840297
    outer loop
      vertex -1.75 30 10
      vertex -1.75 14.8791 19.7554
      vertex -1.56793 14.9178 19.7304
    endloop
  endfacet
  facet normal 3.19362e-16 0.542127 0.840297
    outer loop
      vertex -0.25 14.9178 19.7304
      vertex -1.75 30 10
      vertex -1.56793 14.9178 19.7304
    endloop
  endfacet
  facet normal 3.19362e-16 0.542127 0.840297
    outer loop
      vertex -0.25 14.9178 19.7304
      vertex -0.25 30 10
      vertex -1.75 30 10
    endloop
  endfacet
  facet normal 2.44921e-16 1 0
    outer loop
      vertex -1.75 30 3.33067e-16
      vertex -1.75 30 10
      vertex -0.25 30 0
    endloop
  endfacet
  facet normal 2.44921e-16 1 0
    outer loop
      vertex -0.25 30 0
      vertex -1.75 30 10
      vertex -0.25 30 10
    endloop
  endfacet
  facet normal 0 1 0
    outer loop
      vertex -0.25 30 1.6315e-30
      vertex -0.25 30 0
      vertex -1.75 30 3.33067e-16
    endloop
  endfacet
  facet normal -1 0 1.77321e-16
    outer loop
      vertex -1.75 14.8791 3.33067e-16
      vertex -1.75 14.8791 19.7554
      vertex -1.75 30 3.33067e-16
    endloop
  endfacet
  facet normal -1 0 1.77321e-16
    outer loop
      vertex -1.75 30 3.33067e-16
      vertex -1.75 14.8791 19.7554
      vertex -1.75 30 10
    endloop
  endfacet
endsolid OpenSCAD_Model
